<svg width="508" height="533" viewBox="0 0 508 533" fill="none" xmlns="http://www.w3.org/2000/svg">
<g opacity="0.12">
<path d="M229.624 227.101C264.899 209.98 299.018 199.337 325.65 195.955C338.97 194.264 350.382 194.394 359.117 196.414C367.86 198.436 373.816 202.323 376.425 208.054C379.035 213.785 378.135 220.999 374.065 229.24C369.999 237.474 362.815 246.629 353.056 256.139C333.542 275.154 303.836 295.488 268.561 312.609C233.286 329.73 199.167 340.373 172.534 343.754C159.215 345.446 147.803 345.316 139.068 343.295C130.324 341.273 124.369 337.386 121.759 331.655C119.15 325.924 120.05 318.71 124.12 310.469C128.186 302.236 135.369 293.081 145.129 283.571C164.643 264.555 194.348 244.222 229.624 227.101Z" stroke="#E2E8F0" stroke-width="1.27162"/>
<path d="M234.862 247.422C255.622 237.346 275.735 231.186 291.459 229.356C299.324 228.441 306.054 228.613 311.207 229.896C316.365 231.181 319.844 233.552 321.393 236.953C322.942 240.355 322.49 244.633 320.158 249.554C317.828 254.469 313.663 259.93 307.962 265.599C296.566 276.931 279.138 288.99 258.379 299.066C237.619 309.142 217.506 315.303 201.782 317.133C193.917 318.048 187.186 317.875 182.034 316.592C176.876 315.307 173.395 312.937 171.847 309.535C170.298 306.134 170.75 301.855 173.082 296.934C175.412 292.019 179.578 286.559 185.279 280.89C196.675 269.558 214.102 257.498 234.862 247.422Z" stroke="#E2E8F0" stroke-width="1.27162"/>
<path d="M225.833 204.987C277.267 180.024 326.96 164.357 365.712 159.194C385.092 156.612 401.699 156.661 414.406 159.466C427.124 162.272 435.821 167.808 439.595 176.095C443.369 184.383 441.949 194.829 435.929 206.73C429.913 218.621 419.355 231.855 405.065 245.615C376.491 273.128 333.101 302.638 281.668 327.601C230.234 352.565 180.54 368.232 141.788 373.395C122.409 375.977 105.802 375.927 93.0946 373.123C80.377 370.317 71.6788 364.781 67.905 356.494C64.1312 348.206 65.5518 337.76 71.5723 325.859C77.5881 313.968 88.1456 300.733 102.435 286.974C131.01 259.461 174.399 229.95 225.833 204.987Z" stroke="#E2E8F0" stroke-width="1.27162"/>
</g>
<g filter="url(#filter0_dddd_89_2561)">
<circle cx="333" cy="195" r="2" fill="white"/>
</g>
<g filter="url(#filter1_dddd_89_2561)">
<circle cx="91.9999" cy="373" r="2" fill="white"/>
</g>
<defs>
<filter id="filter0_dddd_89_2561" x="314.1" y="176.1" width="37.8" height="37.8" filterUnits="userSpaceOnUse" color-interpolation-filters="sRGB">
<feFlood flood-opacity="0" result="BackgroundImageFix"/>
<feColorMatrix in="SourceAlpha" type="matrix" values="0 0 0 0 0 0 0 0 0 0 0 0 0 0 0 0 0 0 127 0" result="hardAlpha"/>
<feOffset/>
<feGaussianBlur stdDeviation="8.45"/>
<feComposite in2="hardAlpha" operator="out"/>
<feColorMatrix type="matrix" values="0 0 0 0 1 0 0 0 0 1 0 0 0 0 1 0 0 0 1 0"/>
<feBlend mode="normal" in2="BackgroundImageFix" result="effect1_dropShadow_89_2561"/>
<feColorMatrix in="SourceAlpha" type="matrix" values="0 0 0 0 0 0 0 0 0 0 0 0 0 0 0 0 0 0 127 0" result="hardAlpha"/>
<feOffset/>
<feGaussianBlur stdDeviation="8.45"/>
<feComposite in2="hardAlpha" operator="out"/>
<feColorMatrix type="matrix" values="0 0 0 0 1 0 0 0 0 1 0 0 0 0 1 0 0 0 1 0"/>
<feBlend mode="normal" in2="effect1_dropShadow_89_2561" result="effect2_dropShadow_89_2561"/>
<feColorMatrix in="SourceAlpha" type="matrix" values="0 0 0 0 0 0 0 0 0 0 0 0 0 0 0 0 0 0 127 0" result="hardAlpha"/>
<feOffset/>
<feGaussianBlur stdDeviation="8.45"/>
<feComposite in2="hardAlpha" operator="out"/>
<feColorMatrix type="matrix" values="0 0 0 0 1 0 0 0 0 1 0 0 0 0 1 0 0 0 1 0"/>
<feBlend mode="normal" in2="effect2_dropShadow_89_2561" result="effect3_dropShadow_89_2561"/>
<feColorMatrix in="SourceAlpha" type="matrix" values="0 0 0 0 0 0 0 0 0 0 0 0 0 0 0 0 0 0 127 0" result="hardAlpha"/>
<feOffset/>
<feGaussianBlur stdDeviation="3.8"/>
<feComposite in2="hardAlpha" operator="out"/>
<feColorMatrix type="matrix" values="0 0 0 0 1 0 0 0 0 1 0 0 0 0 1 0 0 0 1 0"/>
<feBlend mode="normal" in2="effect3_dropShadow_89_2561" result="effect4_dropShadow_89_2561"/>
<feBlend mode="normal" in="SourceGraphic" in2="effect4_dropShadow_89_2561" result="shape"/>
</filter>
<filter id="filter1_dddd_89_2561" x="73.0999" y="354.1" width="37.8" height="37.8" filterUnits="userSpaceOnUse" color-interpolation-filters="sRGB">
<feFlood flood-opacity="0" result="BackgroundImageFix"/>
<feColorMatrix in="SourceAlpha" type="matrix" values="0 0 0 0 0 0 0 0 0 0 0 0 0 0 0 0 0 0 127 0" result="hardAlpha"/>
<feOffset/>
<feGaussianBlur stdDeviation="8.45"/>
<feComposite in2="hardAlpha" operator="out"/>
<feColorMatrix type="matrix" values="0 0 0 0 1 0 0 0 0 1 0 0 0 0 1 0 0 0 1 0"/>
<feBlend mode="normal" in2="BackgroundImageFix" result="effect1_dropShadow_89_2561"/>
<feColorMatrix in="SourceAlpha" type="matrix" values="0 0 0 0 0 0 0 0 0 0 0 0 0 0 0 0 0 0 127 0" result="hardAlpha"/>
<feOffset/>
<feGaussianBlur stdDeviation="8.45"/>
<feComposite in2="hardAlpha" operator="out"/>
<feColorMatrix type="matrix" values="0 0 0 0 1 0 0 0 0 1 0 0 0 0 1 0 0 0 1 0"/>
<feBlend mode="normal" in2="effect1_dropShadow_89_2561" result="effect2_dropShadow_89_2561"/>
<feColorMatrix in="SourceAlpha" type="matrix" values="0 0 0 0 0 0 0 0 0 0 0 0 0 0 0 0 0 0 127 0" result="hardAlpha"/>
<feOffset/>
<feGaussianBlur stdDeviation="8.45"/>
<feComposite in2="hardAlpha" operator="out"/>
<feColorMatrix type="matrix" values="0 0 0 0 1 0 0 0 0 1 0 0 0 0 1 0 0 0 1 0"/>
<feBlend mode="normal" in2="effect2_dropShadow_89_2561" result="effect3_dropShadow_89_2561"/>
<feColorMatrix in="SourceAlpha" type="matrix" values="0 0 0 0 0 0 0 0 0 0 0 0 0 0 0 0 0 0 127 0" result="hardAlpha"/>
<feOffset/>
<feGaussianBlur stdDeviation="3.8"/>
<feComposite in2="hardAlpha" operator="out"/>
<feColorMatrix type="matrix" values="0 0 0 0 1 0 0 0 0 1 0 0 0 0 1 0 0 0 1 0"/>
<feBlend mode="normal" in2="effect3_dropShadow_89_2561" result="effect4_dropShadow_89_2561"/>
<feBlend mode="normal" in="SourceGraphic" in2="effect4_dropShadow_89_2561" result="shape"/>
</filter>
</defs>
</svg>
