<svg width="29" height="29" viewBox="0 0 29 29" fill="none" xmlns="http://www.w3.org/2000/svg">
<g clip-path="url(#clip0_154_6024)">
<path d="M14.5 19C15.8807 19 17 17.6569 17 16C17 14.3431 15.8807 13 14.5 13C13.1193 13 12 14.3431 12 16C12 17.6569 13.1193 19 14.5 19Z" stroke="#334155"/>
<path opacity="0.5" d="M12.9688 20.8013C20.1778 22.704 26.7073 21.6491 27.553 18.4452C28.3986 15.2412 23.2402 11.1014 16.0312 9.19863C8.82223 7.29589 2.29267 8.35076 1.44701 11.5547C0.601347 14.7587 5.75983 18.8985 12.9688 20.8013Z" stroke="#334155"/>
<path opacity="0.5" d="M18.1556 21.6887C24.2869 17.6508 27.6205 11.8923 25.6016 8.82663C23.5826 5.761 16.9756 6.5492 10.8443 10.5871C4.71304 14.6251 1.37937 20.3836 3.39833 23.4492C5.41729 26.5149 12.0244 25.7267 18.1556 21.6887Z" stroke="#334155"/>
</g>
<defs>
<clipPath id="clip0_154_6024">
<rect width="29" height="29" fill="white"/>
</clipPath>
</defs>
</svg>
