<svg width="29" height="29" viewBox="0 0 29 29" fill="none" xmlns="http://www.w3.org/2000/svg">
<path d="M14.7658 2.41675H14.2342C13.5932 2.41675 12.9785 2.67136 12.5253 3.12457C12.0721 3.57779 11.8175 4.19247 11.8175 4.83341V5.05091C11.8171 5.47471 11.7052 5.89094 11.4931 6.25784C11.281 6.62475 10.9762 6.92943 10.6092 7.14133L10.0896 7.44341C9.72221 7.65552 9.30547 7.76719 8.88125 7.76719C8.45704 7.76719 8.0403 7.65552 7.67292 7.44341L7.49167 7.34675C6.93712 7.02686 6.27831 6.94008 5.65984 7.10545C5.04137 7.27083 4.51379 7.67485 4.19292 8.22883L3.92709 8.688C3.60719 9.24254 3.52041 9.90136 3.68579 10.5198C3.85117 11.1383 4.25519 11.6659 4.80917 11.9867L4.99042 12.1076C5.35567 12.3184 5.65938 12.6212 5.87136 12.9858C6.08334 13.3504 6.19621 13.7642 6.19875 14.1859V14.8022C6.20044 15.228 6.08958 15.6467 5.87739 16.0159C5.6652 16.3852 5.35921 16.6917 4.99042 16.9047L4.80917 17.0134C4.25519 17.3343 3.85117 17.8619 3.68579 18.4803C3.52041 19.0988 3.60719 19.7576 3.92709 20.3122L4.19292 20.7713C4.51379 21.3253 5.04137 21.7293 5.65984 21.8947C6.27831 22.0601 6.93712 21.9733 7.49167 21.6534L7.67292 21.5567C8.0403 21.3446 8.45704 21.233 8.88125 21.233C9.30547 21.233 9.72221 21.3446 10.0896 21.5567L10.6092 21.8588C10.9762 22.0707 11.281 22.3754 11.4931 22.7423C11.7052 23.1092 11.8171 23.5255 11.8175 23.9492V24.1667C11.8175 24.8077 12.0721 25.4224 12.5253 25.8756C12.9785 26.3288 13.5932 26.5834 14.2342 26.5834H14.7658C15.4068 26.5834 16.0215 26.3288 16.4747 25.8756C16.9279 25.4224 17.1825 24.8077 17.1825 24.1667V23.9492C17.1829 23.5255 17.2948 23.1092 17.5069 22.7423C17.719 22.3754 18.0238 22.0707 18.3908 21.8588L18.9104 21.5567C19.2778 21.3446 19.6945 21.233 20.1188 21.233C20.543 21.233 20.9597 21.3446 21.3271 21.5567L21.5083 21.6534C22.0629 21.9733 22.7217 22.0601 23.3402 21.8947C23.9586 21.7293 24.4862 21.3253 24.8071 20.7713L25.0729 20.3001C25.3928 19.7455 25.4796 19.0867 25.3142 18.4683C25.1488 17.8498 24.7448 17.3222 24.1908 17.0013L24.0096 16.9047C23.6408 16.6917 23.3348 16.3852 23.1226 16.0159C22.9104 15.6467 22.7996 15.228 22.8013 14.8022V14.198C22.7996 13.7722 22.9104 13.3534 23.1226 12.9842C23.3348 12.615 23.6408 12.3084 24.0096 12.0955L24.1908 11.9867C24.7448 11.6659 25.1488 11.1383 25.3142 10.5198C25.4796 9.90136 25.3928 9.24254 25.0729 8.688L24.8071 8.22883C24.4862 7.67485 23.9586 7.27083 23.3402 7.10545C22.7217 6.94008 22.0629 7.02686 21.5083 7.34675L21.3271 7.44341C20.9597 7.65552 20.543 7.76719 20.1188 7.76719C19.6945 7.76719 19.2778 7.65552 18.9104 7.44341L18.3908 7.14133C18.0238 6.92943 17.719 6.62475 17.5069 6.25784C17.2948 5.89094 17.1829 5.47471 17.1825 5.05091V4.83341C17.1825 4.19247 16.9279 3.57779 16.4747 3.12457C16.0215 2.67136 15.4068 2.41675 14.7658 2.41675Z" stroke="#334155" stroke-width="1.02917" stroke-linecap="round" stroke-linejoin="round"/>
<path d="M14.5 18.125C16.502 18.125 18.125 16.502 18.125 14.5C18.125 12.498 16.502 10.875 14.5 10.875C12.498 10.875 10.875 12.498 10.875 14.5C10.875 16.502 12.498 18.125 14.5 18.125Z" stroke="#334155" stroke-width="1.02917" stroke-linecap="round" stroke-linejoin="round"/>
</svg>
