<svg width="29" height="29" viewBox="0 0 29 29" fill="none" xmlns="http://www.w3.org/2000/svg">
<path d="M7.25001 14.5H5.80001C4.99919 14.5 4.35001 15.1492 4.35001 15.95V23.2C4.35001 24.0008 4.99919 24.65 5.80001 24.65H7.25001C8.05082 24.65 8.70001 24.0008 8.70001 23.2V15.95C8.70001 15.1492 8.05082 14.5 7.25001 14.5Z" stroke="#334155"/>
<path d="M15.225 8.69995H13.775C12.9742 8.69995 12.325 9.34914 12.325 10.15V23.2C12.325 24.0008 12.9742 24.65 13.775 24.65H15.225C16.0258 24.65 16.675 24.0008 16.675 23.2V10.15C16.675 9.34914 16.0258 8.69995 15.225 8.69995Z" stroke="#334155"/>
<path d="M23.2 4.3501H21.75C20.9492 4.3501 20.3 4.99928 20.3 5.8001V23.2001C20.3 24.0009 20.9492 24.6501 21.75 24.6501H23.2C24.0008 24.6501 24.65 24.0009 24.65 23.2001V5.8001C24.65 4.99928 24.0008 4.3501 23.2 4.3501Z" stroke="#334155"/>
</svg>
